<svg width="23" height="22" viewBox="0 0 23 22" fill="none" xmlns="http://www.w3.org/2000/svg">
<rect x="5" y="5" width="13" height="17" rx="4" fill="black"/>
<rect x="8" width="7" height="6" rx="3" fill="black"/>
<path d="M18.5 6L15 9L16 10L18.5 7.5L20.5 9L21.5 8L18.5 6Z" fill="black"/>
<path d="M18.5 6L15 9L16 10L18.5 7.5L20.5 9L21.5 8L18.5 6Z" fill="black"/>
<path d="M18.5 6L15 9L16 10L18.5 7.5L20.5 9L21.5 8L18.5 6Z" fill="black"/>
<path d="M18.5 6L15 9L16 10L18.5 7.5L20.5 9L21.5 8L18.5 6Z" stroke="black"/>
<path d="M18.5 11L15 14L16 15L18.5 12.5L20.5 14L21.5 13L18.5 11Z" fill="black"/>
<path d="M18.5 11L15 14L16 15L18.5 12.5L20.5 14L21.5 13L18.5 11Z" fill="black"/>
<path d="M18.5 11L15 14L16 15L18.5 12.5L20.5 14L21.5 13L18.5 11Z" fill="black"/>
<path d="M18.5 11L15 14L16 15L18.5 12.5L20.5 14L21.5 13L18.5 11Z" stroke="black"/>
<path d="M18.5 16L15 19L16 20L18.5 17.5L20.5 19L21.5 18L18.5 16Z" fill="black"/>
<path d="M18.5 16L15 19L16 20L18.5 17.5L20.5 19L21.5 18L18.5 16Z" fill="black"/>
<path d="M18.5 16L15 19L16 20L18.5 17.5L20.5 19L21.5 18L18.5 16Z" fill="black"/>
<path d="M18.5 16L15 19L16 20L18.5 17.5L20.5 19L21.5 18L18.5 16Z" stroke="black"/>
<path d="M4 6L7.5 9L6.5 10L4 7.5L2 9L1 8L4 6Z" fill="black"/>
<path d="M4 6L7.5 9L6.5 10L4 7.5L2 9L1 8L4 6Z" fill="black"/>
<path d="M4 6L7.5 9L6.5 10L4 7.5L2 9L1 8L4 6Z" fill="black"/>
<path d="M4 6L7.5 9L6.5 10L4 7.5L2 9L1 8L4 6Z" stroke="black"/>
<path d="M4 11L7.5 14L6.5 15L4 12.5L2 14L1 13L4 11Z" fill="black"/>
<path d="M4 11L7.5 14L6.5 15L4 12.5L2 14L1 13L4 11Z" fill="black"/>
<path d="M4 11L7.5 14L6.5 15L4 12.5L2 14L1 13L4 11Z" fill="black"/>
<path d="M4 11L7.5 14L6.5 15L4 12.5L2 14L1 13L4 11Z" stroke="black"/>
<path d="M4 16L7.5 19L6.5 20L4 17.5L2 19L1 18L4 16Z" fill="black"/>
<path d="M4 16L7.5 19L6.5 20L4 17.5L2 19L1 18L4 16Z" fill="black"/>
<path d="M4 16L7.5 19L6.5 20L4 17.5L2 19L1 18L4 16Z" fill="black"/>
<path d="M4 16L7.5 19L6.5 20L4 17.5L2 19L1 18L4 16Z" stroke="black"/>
<circle cx="11.5" cy="9.5" r="1.5" fill="white"/>
<circle cx="11.5" cy="12.5" r="1.5" fill="white"/>
<circle cx="11.5" cy="15.5" r="1.5" fill="white"/>
<circle cx="11.5" cy="18.5" r="1.5" fill="white"/>
</svg>
