<svg width="29" height="21" viewBox="0 0 29 21" fill="none" xmlns="http://www.w3.org/2000/svg">
<path d="M23 15.0001H1C1 9.2383 5.84973 3.74746 11.5417 3.47721C17.4972 3.19444 22.0833 8.71469 23 15.0001Z" stroke="black"/>
<path d="M22.6531 14.5818C17.9374 15.1392 5.20533 15.1394 1.90455 14.5818C-1.39623 14.0242 4.89097 2.75631 11.8072 2.31914C18.7234 1.88197 27.3689 14.0243 22.6531 14.5818Z" fill="white" stroke="black"/>
<path d="M5.29492 10.2574C5.643 9.62039 5.64784 9.8475 5.70209 9.74512" stroke="black" stroke-linecap="round" stroke-linejoin="round"/>
<path d="M8.55225 10.3593C8.78287 10.1257 9.16492 9.60458 8.79655 10.1771C8.69572 10.3338 8.55603 10.7501 8.63368 10.3593" stroke="black" stroke-linecap="round" stroke-linejoin="round"/>
<path d="M11.3208 7.49023C11.4328 7.51324 12.1269 7.56967 11.728 7.69515" stroke="black" stroke-linecap="round" stroke-linejoin="round"/>
<path d="M15.1484 8.30957C15.2375 8.85567 15.1349 8.61694 15.3927 8.61694" stroke="black" stroke-linecap="round" stroke-linejoin="round"/>
<path d="M12.7871 11.7933C12.9654 11.662 13.6109 11.2691 13.1943 11.7933C12.8652 12.2074 13.073 11.9443 13.1943 11.5884" stroke="black" stroke-linecap="round" stroke-linejoin="round"/>
<path d="M16.3696 11.8959C16.5339 11.8571 16.8582 11.5433 16.8582 11.7536C16.8582 11.8062 16.8538 11.9992 16.7949 12.0097C16.7814 12.0122 16.9283 11.7197 16.9397 11.691" stroke="black" stroke-linecap="round" stroke-linejoin="round"/>
<path d="M18.0801 9.23242C18.2842 9.41401 18.8944 10.1865 18.8944 9.64225" stroke="black" stroke-linecap="round" stroke-linejoin="round"/>
<path d="M8.95898 13.5355C9.14591 13.4556 9.58929 13.0639 9.51997 13.2965C9.48579 13.4112 9.31656 13.5603 9.25305 13.6722C9.1661 13.8253 9.47665 13.4148 9.61045 13.3306" stroke="black" stroke-linecap="round" stroke-linejoin="round"/>
<path d="M5.62061 13.3303C5.79315 12.9052 5.91167 12.7091 6.19064 12.4082" stroke="black" stroke-linecap="round" stroke-linejoin="round"/>
<path d="M3.42188 12.9209C3.80658 13.0568 4.30483 13.1841 3.66618 13.0234" stroke="black" stroke-linecap="round" stroke-linejoin="round"/>
<path d="M8.30777 7.7982C8.21251 7.71206 8.0635 7.50219 7.93679 7.59329C7.87708 7.63622 7.77393 7.75267 7.77393 7.75267C7.77393 7.75267 8.06978 7.43563 7.98203 7.49083" stroke="black" stroke-linecap="round" stroke-linejoin="round"/>
<path d="M13.6826 5.64632C14.0535 5.3255 14.0799 5.83464 13.8455 5.44141" stroke="black" stroke-linecap="round" stroke-linejoin="round"/>
<path d="M19.2202 13.0229C19.5865 12.6877 19.7274 12.9204 19.4645 12.9204" stroke="black" stroke-linecap="round" stroke-linejoin="round"/>
<path d="M14.6597 13.3311C14.9492 13.8538 14.8376 13.8168 14.7411 13.3311" stroke="black" stroke-linecap="round" stroke-linejoin="round"/>
<path d="M27 20.0001H5C5 14.2383 9.84973 8.74746 15.5417 8.47721C21.4972 8.19444 26.0833 13.7147 27 20.0001Z" stroke="black"/>
<path d="M26.6531 19.5818C21.9374 20.1392 9.20533 20.1394 5.90455 19.5818C2.60377 19.0242 8.89097 7.75631 15.8072 7.31914C22.7234 6.88197 31.3689 19.0243 26.6531 19.5818Z" fill="white" stroke="black"/>
<path d="M9.29492 15.2574C9.643 14.6204 9.64784 14.8475 9.70209 14.7451" stroke="black" stroke-linecap="round" stroke-linejoin="round"/>
<path d="M12.5522 15.3593C12.7829 15.1257 13.1649 14.6046 12.7965 15.1771C12.6957 15.3338 12.556 15.7501 12.6337 15.3593" stroke="black" stroke-linecap="round" stroke-linejoin="round"/>
<path d="M15.3208 12.4902C15.4328 12.5132 16.1269 12.5697 15.728 12.6951" stroke="black" stroke-linecap="round" stroke-linejoin="round"/>
<path d="M19.1484 13.3096C19.2375 13.8557 19.1349 13.6169 19.3927 13.6169" stroke="black" stroke-linecap="round" stroke-linejoin="round"/>
<path d="M16.7871 16.7933C16.9654 16.662 17.6109 16.2691 17.1943 16.7933C16.8652 17.2074 17.073 16.9443 17.1943 16.5884" stroke="black" stroke-linecap="round" stroke-linejoin="round"/>
<path d="M20.3696 16.8959C20.5339 16.8571 20.8582 16.5433 20.8582 16.7536C20.8582 16.8062 20.8538 16.9992 20.7949 17.0097C20.7814 17.0122 20.9283 16.7197 20.9397 16.691" stroke="black" stroke-linecap="round" stroke-linejoin="round"/>
<path d="M22.0801 14.2324C22.2842 14.414 22.8944 15.1865 22.8944 14.6423" stroke="black" stroke-linecap="round" stroke-linejoin="round"/>
<path d="M12.959 18.5355C13.1459 18.4556 13.5893 18.0639 13.52 18.2965C13.4858 18.4112 13.3166 18.5603 13.253 18.6722C13.1661 18.8253 13.4766 18.4148 13.6105 18.3306" stroke="black" stroke-linecap="round" stroke-linejoin="round"/>
<path d="M9.62061 18.3303C9.79315 17.9052 9.91167 17.7091 10.1906 17.4082" stroke="black" stroke-linecap="round" stroke-linejoin="round"/>
<path d="M7.42188 17.9209C7.80658 18.0568 8.30483 18.1841 7.66618 18.0234" stroke="black" stroke-linecap="round" stroke-linejoin="round"/>
<path d="M12.3078 12.7982C12.2125 12.7121 12.0635 12.5022 11.9368 12.5933C11.8771 12.6362 11.7739 12.7527 11.7739 12.7527C11.7739 12.7527 12.0698 12.4356 11.982 12.4908" stroke="black" stroke-linecap="round" stroke-linejoin="round"/>
<path d="M17.6826 10.6463C18.0535 10.3255 18.0799 10.8346 17.8455 10.4414" stroke="black" stroke-linecap="round" stroke-linejoin="round"/>
<path d="M23.2202 18.0229C23.5865 17.6877 23.7274 17.9204 23.4645 17.9204" stroke="black" stroke-linecap="round" stroke-linejoin="round"/>
<path d="M18.6597 18.3311C18.9492 18.8538 18.8376 18.8168 18.7411 18.3311" stroke="black" stroke-linecap="round" stroke-linejoin="round"/>
</svg>
